<mxfile host="app.diagrams.net" modified="2024-06-30T10:33:50.957Z" agent="Mozilla/5.0 (Macintosh; Intel Mac OS X 10_15_7) AppleWebKit/537.36 (KHTML, like Gecko) Chrome/125.0.0.0 Safari/537.36 Edg/125.0.0.0" etag="7MgX0tpxXUOs1lw6Gb6V" version="24.6.4" type="github">
  <diagram id="prtHgNgQTEPvFCAcTncT" name="Page-1">
    <mxGraphModel dx="1258" dy="751" grid="1" gridSize="10" guides="1" tooltips="1" connect="1" arrows="1" fold="1" page="1" pageScale="1" pageWidth="827" pageHeight="1169" math="0" shadow="0">
      <root>
        <mxCell id="0" />
        <mxCell id="1" parent="0" />
        <mxCell id="kZFQ1U0gjQcbKw0PgBR--1" value="还款-判断是否需要发验证码" style="swimlane;childLayout=stackLayout;resizeParent=1;resizeParentMax=0;startSize=20;html=1;labelBackgroundColor=none;fillColor=#B2C9AB;strokeColor=#788AA3;fontColor=#46495D;" vertex="1" parent="1">
          <mxGeometry x="10" y="100" width="1440" height="2388" as="geometry" />
        </mxCell>
        <mxCell id="kZFQ1U0gjQcbKw0PgBR--2" value="apiopfcore" style="swimlane;startSize=20;html=1;labelBackgroundColor=none;fillColor=#B2C9AB;strokeColor=#788AA3;fontColor=#46495D;" vertex="1" parent="kZFQ1U0gjQcbKw0PgBR--1">
          <mxGeometry y="20" width="500" height="2368" as="geometry" />
        </mxCell>
        <mxCell id="kZFQ1U0gjQcbKw0PgBR--9" value="" style="edgeStyle=orthogonalEdgeStyle;rounded=0;orthogonalLoop=1;jettySize=auto;html=1;strokeColor=#788AA3;fontColor=#46495D;fillColor=#B2C9AB;" edge="1" parent="kZFQ1U0gjQcbKw0PgBR--2" source="kZFQ1U0gjQcbKw0PgBR--5" target="kZFQ1U0gjQcbKw0PgBR--8">
          <mxGeometry relative="1" as="geometry" />
        </mxCell>
        <mxCell id="kZFQ1U0gjQcbKw0PgBR--5" value="还款-是否需要发验证码接口" style="rounded=0;whiteSpace=wrap;html=1;strokeColor=#788AA3;fontColor=#46495D;fillColor=#B2C9AB;" vertex="1" parent="kZFQ1U0gjQcbKw0PgBR--2">
          <mxGeometry x="80" y="50" width="120" height="60" as="geometry" />
        </mxCell>
        <mxCell id="kZFQ1U0gjQcbKw0PgBR--13" value="" style="edgeStyle=orthogonalEdgeStyle;shape=connector;curved=0;rounded=1;orthogonalLoop=1;jettySize=auto;html=1;strokeColor=#788AA3;align=center;verticalAlign=middle;fontFamily=Helvetica;fontSize=11;fontColor=#46495D;labelBackgroundColor=default;endArrow=classic;fillColor=#B2C9AB;" edge="1" parent="kZFQ1U0gjQcbKw0PgBR--2" source="kZFQ1U0gjQcbKw0PgBR--8" target="kZFQ1U0gjQcbKw0PgBR--12">
          <mxGeometry relative="1" as="geometry" />
        </mxCell>
        <mxCell id="kZFQ1U0gjQcbKw0PgBR--8" value="查询用户的默认卡" style="whiteSpace=wrap;html=1;fillColor=#B2C9AB;strokeColor=#788AA3;fontColor=#46495D;rounded=0;" vertex="1" parent="kZFQ1U0gjQcbKw0PgBR--2">
          <mxGeometry x="80" y="160" width="120" height="60" as="geometry" />
        </mxCell>
        <mxCell id="kZFQ1U0gjQcbKw0PgBR--25" value="" style="edgeStyle=orthogonalEdgeStyle;shape=connector;curved=0;rounded=1;orthogonalLoop=1;jettySize=auto;html=1;strokeColor=#788AA3;align=center;verticalAlign=middle;fontFamily=Helvetica;fontSize=11;fontColor=#46495D;labelBackgroundColor=default;endArrow=classic;fillColor=#B2C9AB;" edge="1" parent="kZFQ1U0gjQcbKw0PgBR--2" source="kZFQ1U0gjQcbKw0PgBR--12" target="kZFQ1U0gjQcbKw0PgBR--24">
          <mxGeometry relative="1" as="geometry" />
        </mxCell>
        <mxCell id="kZFQ1U0gjQcbKw0PgBR--12" value="判断银行卡信息是否有效" style="whiteSpace=wrap;html=1;fillColor=#B2C9AB;strokeColor=#788AA3;fontColor=#46495D;rounded=0;" vertex="1" parent="kZFQ1U0gjQcbKw0PgBR--2">
          <mxGeometry x="80" y="260" width="120" height="60" as="geometry" />
        </mxCell>
        <mxCell id="kZFQ1U0gjQcbKw0PgBR--20" value="" style="edgeStyle=orthogonalEdgeStyle;shape=connector;curved=0;rounded=1;orthogonalLoop=1;jettySize=auto;html=1;strokeColor=#788AA3;align=center;verticalAlign=middle;fontFamily=Helvetica;fontSize=11;fontColor=#46495D;labelBackgroundColor=default;endArrow=classic;fillColor=#B2C9AB;entryX=0.5;entryY=0;entryDx=0;entryDy=0;" edge="1" parent="kZFQ1U0gjQcbKw0PgBR--2" source="kZFQ1U0gjQcbKw0PgBR--14" target="kZFQ1U0gjQcbKw0PgBR--23">
          <mxGeometry relative="1" as="geometry">
            <mxPoint x="140" y="590" as="targetPoint" />
          </mxGeometry>
        </mxCell>
        <mxCell id="kZFQ1U0gjQcbKw0PgBR--14" value="请求查询宝付协议号" style="whiteSpace=wrap;html=1;fillColor=#B2C9AB;strokeColor=#788AA3;fontColor=#46495D;rounded=0;" vertex="1" parent="kZFQ1U0gjQcbKw0PgBR--2">
          <mxGeometry x="80" y="490" width="120" height="60" as="geometry" />
        </mxCell>
        <mxCell id="kZFQ1U0gjQcbKw0PgBR--22" value="否" style="edgeStyle=orthogonalEdgeStyle;shape=connector;curved=0;rounded=1;orthogonalLoop=1;jettySize=auto;html=1;strokeColor=#788AA3;align=center;verticalAlign=middle;fontFamily=Helvetica;fontSize=11;fontColor=#46495D;labelBackgroundColor=none;endArrow=classic;fillColor=#B2C9AB;exitX=1;exitY=0.5;exitDx=0;exitDy=0;" edge="1" parent="kZFQ1U0gjQcbKw0PgBR--2" source="kZFQ1U0gjQcbKw0PgBR--23" target="kZFQ1U0gjQcbKw0PgBR--21">
          <mxGeometry relative="1" as="geometry">
            <mxPoint x="200" y="620" as="sourcePoint" />
          </mxGeometry>
        </mxCell>
        <mxCell id="kZFQ1U0gjQcbKw0PgBR--21" value="返回需要发验证码&lt;div&gt;发宝付&lt;/div&gt;" style="whiteSpace=wrap;html=1;fillColor=#fff2cc;strokeColor=#d6b656;rounded=0;labelBackgroundColor=none;" vertex="1" parent="kZFQ1U0gjQcbKw0PgBR--2">
          <mxGeometry x="300" y="615" width="120" height="60" as="geometry" />
        </mxCell>
        <mxCell id="kZFQ1U0gjQcbKw0PgBR--28" value="是" style="edgeStyle=orthogonalEdgeStyle;shape=connector;curved=0;rounded=1;orthogonalLoop=1;jettySize=auto;html=1;strokeColor=#788AA3;align=center;verticalAlign=middle;fontFamily=Helvetica;fontSize=11;fontColor=#46495D;labelBackgroundColor=none;endArrow=classic;fillColor=#B2C9AB;" edge="1" parent="kZFQ1U0gjQcbKw0PgBR--2" source="kZFQ1U0gjQcbKw0PgBR--23" target="kZFQ1U0gjQcbKw0PgBR--27">
          <mxGeometry relative="1" as="geometry" />
        </mxCell>
        <mxCell id="kZFQ1U0gjQcbKw0PgBR--23" value="是否存在宝付协议号数据" style="rhombus;whiteSpace=wrap;html=1;strokeColor=#788AA3;fontFamily=Helvetica;fontSize=11;fontColor=#46495D;labelBackgroundColor=none;fillColor=#B2C9AB;" vertex="1" parent="kZFQ1U0gjQcbKw0PgBR--2">
          <mxGeometry x="65" y="600" width="150" height="90" as="geometry" />
        </mxCell>
        <mxCell id="kZFQ1U0gjQcbKw0PgBR--26" style="edgeStyle=orthogonalEdgeStyle;shape=connector;curved=0;rounded=1;orthogonalLoop=1;jettySize=auto;html=1;entryX=0.5;entryY=0;entryDx=0;entryDy=0;strokeColor=#788AA3;align=center;verticalAlign=middle;fontFamily=Helvetica;fontSize=11;fontColor=#46495D;labelBackgroundColor=default;endArrow=classic;fillColor=#B2C9AB;" edge="1" parent="kZFQ1U0gjQcbKw0PgBR--2" source="kZFQ1U0gjQcbKw0PgBR--24" target="kZFQ1U0gjQcbKw0PgBR--14">
          <mxGeometry relative="1" as="geometry" />
        </mxCell>
        <mxCell id="kZFQ1U0gjQcbKw0PgBR--24" value="判断是否需要签约宝付" style="whiteSpace=wrap;html=1;fillColor=#B2C9AB;strokeColor=#788AA3;fontColor=#46495D;rounded=0;" vertex="1" parent="kZFQ1U0gjQcbKw0PgBR--2">
          <mxGeometry x="80" y="370" width="120" height="60" as="geometry" />
        </mxCell>
        <mxCell id="kZFQ1U0gjQcbKw0PgBR--30" value="" style="edgeStyle=orthogonalEdgeStyle;shape=connector;curved=0;rounded=1;orthogonalLoop=1;jettySize=auto;html=1;strokeColor=#788AA3;align=center;verticalAlign=middle;fontFamily=Helvetica;fontSize=11;fontColor=#46495D;labelBackgroundColor=default;endArrow=classic;fillColor=#B2C9AB;" edge="1" parent="kZFQ1U0gjQcbKw0PgBR--2" source="kZFQ1U0gjQcbKw0PgBR--27" target="kZFQ1U0gjQcbKw0PgBR--29">
          <mxGeometry relative="1" as="geometry" />
        </mxCell>
        <mxCell id="kZFQ1U0gjQcbKw0PgBR--27" value="判断是否需要签约通联" style="whiteSpace=wrap;html=1;fontSize=11;fillColor=#B2C9AB;strokeColor=#788AA3;fontColor=#46495D;labelBackgroundColor=none;" vertex="1" parent="kZFQ1U0gjQcbKw0PgBR--2">
          <mxGeometry x="80" y="740" width="120" height="60" as="geometry" />
        </mxCell>
        <mxCell id="kZFQ1U0gjQcbKw0PgBR--32" value="是" style="edgeStyle=orthogonalEdgeStyle;shape=connector;curved=0;rounded=1;orthogonalLoop=1;jettySize=auto;html=1;strokeColor=#788AA3;align=center;verticalAlign=middle;fontFamily=Helvetica;fontSize=11;fontColor=#46495D;labelBackgroundColor=none;endArrow=classic;fillColor=#B2C9AB;" edge="1" parent="kZFQ1U0gjQcbKw0PgBR--2" source="kZFQ1U0gjQcbKw0PgBR--29" target="kZFQ1U0gjQcbKw0PgBR--31">
          <mxGeometry relative="1" as="geometry" />
        </mxCell>
        <mxCell id="kZFQ1U0gjQcbKw0PgBR--34" value="否" style="edgeStyle=orthogonalEdgeStyle;shape=connector;curved=0;rounded=1;orthogonalLoop=1;jettySize=auto;html=1;strokeColor=#788AA3;align=center;verticalAlign=middle;fontFamily=Helvetica;fontSize=11;fontColor=#46495D;labelBackgroundColor=none;endArrow=classic;fillColor=#B2C9AB;" edge="1" parent="kZFQ1U0gjQcbKw0PgBR--2" source="kZFQ1U0gjQcbKw0PgBR--29" target="kZFQ1U0gjQcbKw0PgBR--33">
          <mxGeometry relative="1" as="geometry" />
        </mxCell>
        <mxCell id="kZFQ1U0gjQcbKw0PgBR--29" value="是否命中不特殊资方" style="rhombus;whiteSpace=wrap;html=1;fontSize=11;fillColor=#f8cecc;strokeColor=#b85450;labelBackgroundColor=none;" vertex="1" parent="kZFQ1U0gjQcbKw0PgBR--2">
          <mxGeometry x="60" y="840" width="160" height="80" as="geometry" />
        </mxCell>
        <mxCell id="kZFQ1U0gjQcbKw0PgBR--31" value="不需要签约通联" style="whiteSpace=wrap;html=1;fontSize=11;fillColor=#B2C9AB;strokeColor=#788AA3;fontColor=#46495D;labelBackgroundColor=none;" vertex="1" parent="kZFQ1U0gjQcbKw0PgBR--2">
          <mxGeometry x="300" y="850" width="120" height="60" as="geometry" />
        </mxCell>
        <mxCell id="kZFQ1U0gjQcbKw0PgBR--40" value="" style="edgeStyle=orthogonalEdgeStyle;shape=connector;curved=0;rounded=1;orthogonalLoop=1;jettySize=auto;html=1;strokeColor=#788AA3;align=center;verticalAlign=middle;fontFamily=Helvetica;fontSize=11;fontColor=#46495D;labelBackgroundColor=none;endArrow=classic;fillColor=#B2C9AB;" edge="1" parent="kZFQ1U0gjQcbKw0PgBR--2" source="kZFQ1U0gjQcbKw0PgBR--33" target="kZFQ1U0gjQcbKw0PgBR--39">
          <mxGeometry relative="1" as="geometry" />
        </mxCell>
        <mxCell id="kZFQ1U0gjQcbKw0PgBR--33" value="查询子资金配置信息" style="whiteSpace=wrap;html=1;fontSize=11;fillColor=#B2C9AB;strokeColor=#788AA3;fontColor=#46495D;labelBackgroundColor=none;" vertex="1" parent="kZFQ1U0gjQcbKw0PgBR--2">
          <mxGeometry x="80" y="970" width="120" height="60" as="geometry" />
        </mxCell>
        <mxCell id="kZFQ1U0gjQcbKw0PgBR--42" value="" style="edgeStyle=orthogonalEdgeStyle;shape=connector;curved=0;rounded=1;orthogonalLoop=1;jettySize=auto;html=1;strokeColor=#788AA3;align=center;verticalAlign=middle;fontFamily=Helvetica;fontSize=11;fontColor=#46495D;labelBackgroundColor=none;endArrow=classic;fillColor=#B2C9AB;" edge="1" parent="kZFQ1U0gjQcbKw0PgBR--2" source="kZFQ1U0gjQcbKw0PgBR--39" target="kZFQ1U0gjQcbKw0PgBR--41">
          <mxGeometry relative="1" as="geometry" />
        </mxCell>
        <mxCell id="kZFQ1U0gjQcbKw0PgBR--66" value="&lt;span style=&quot;background-color: rgb(251, 251, 251);&quot;&gt;否&lt;/span&gt;" style="edgeLabel;html=1;align=center;verticalAlign=middle;resizable=0;points=[];strokeColor=#788AA3;fontFamily=Helvetica;fontSize=11;fontColor=#46495D;labelBackgroundColor=default;fillColor=#B2C9AB;" vertex="1" connectable="0" parent="kZFQ1U0gjQcbKw0PgBR--42">
          <mxGeometry x="-0.0621" y="2" relative="1" as="geometry">
            <mxPoint as="offset" />
          </mxGeometry>
        </mxCell>
        <mxCell id="kZFQ1U0gjQcbKw0PgBR--44" value="" style="edgeStyle=orthogonalEdgeStyle;shape=connector;curved=0;rounded=1;orthogonalLoop=1;jettySize=auto;html=1;strokeColor=#788AA3;align=center;verticalAlign=middle;fontFamily=Helvetica;fontSize=11;fontColor=#46495D;labelBackgroundColor=none;endArrow=classic;fillColor=#B2C9AB;" edge="1" parent="kZFQ1U0gjQcbKw0PgBR--2" source="kZFQ1U0gjQcbKw0PgBR--39" target="kZFQ1U0gjQcbKw0PgBR--43">
          <mxGeometry relative="1" as="geometry" />
        </mxCell>
        <mxCell id="kZFQ1U0gjQcbKw0PgBR--65" value="是" style="edgeLabel;html=1;align=center;verticalAlign=middle;resizable=0;points=[];strokeColor=#788AA3;fontFamily=Helvetica;fontSize=11;fontColor=#46495D;labelBackgroundColor=default;fillColor=#B2C9AB;" vertex="1" connectable="0" parent="kZFQ1U0gjQcbKw0PgBR--44">
          <mxGeometry x="-0.2052" y="-1" relative="1" as="geometry">
            <mxPoint as="offset" />
          </mxGeometry>
        </mxCell>
        <mxCell id="kZFQ1U0gjQcbKw0PgBR--39" value="子资金是否是协议共享" style="rhombus;whiteSpace=wrap;html=1;fontSize=11;fillColor=#B2C9AB;strokeColor=#788AA3;fontColor=#46495D;labelBackgroundColor=none;" vertex="1" parent="kZFQ1U0gjQcbKw0PgBR--2">
          <mxGeometry x="60" y="1070" width="160" height="80" as="geometry" />
        </mxCell>
        <mxCell id="kZFQ1U0gjQcbKw0PgBR--41" value="不需要签约通联" style="whiteSpace=wrap;html=1;fontSize=11;fillColor=#B2C9AB;strokeColor=#788AA3;fontColor=#46495D;labelBackgroundColor=none;" vertex="1" parent="kZFQ1U0gjQcbKw0PgBR--2">
          <mxGeometry x="300" y="1080" width="120" height="60" as="geometry" />
        </mxCell>
        <mxCell id="kZFQ1U0gjQcbKw0PgBR--46" value="" style="edgeStyle=orthogonalEdgeStyle;shape=connector;curved=0;rounded=1;orthogonalLoop=1;jettySize=auto;html=1;strokeColor=#788AA3;align=center;verticalAlign=middle;fontFamily=Helvetica;fontSize=11;fontColor=#46495D;labelBackgroundColor=none;endArrow=classic;fillColor=#B2C9AB;" edge="1" parent="kZFQ1U0gjQcbKw0PgBR--2" source="kZFQ1U0gjQcbKw0PgBR--43" target="kZFQ1U0gjQcbKw0PgBR--45">
          <mxGeometry relative="1" as="geometry" />
        </mxCell>
        <mxCell id="kZFQ1U0gjQcbKw0PgBR--43" value="支付渠道非通联，不需要签约通联" style="whiteSpace=wrap;html=1;fontSize=11;fillColor=#B2C9AB;strokeColor=#788AA3;fontColor=#46495D;labelBackgroundColor=none;" vertex="1" parent="kZFQ1U0gjQcbKw0PgBR--2">
          <mxGeometry x="80" y="1190" width="120" height="60" as="geometry" />
        </mxCell>
        <mxCell id="kZFQ1U0gjQcbKw0PgBR--51" value="" style="edgeStyle=orthogonalEdgeStyle;shape=connector;curved=0;rounded=1;orthogonalLoop=1;jettySize=auto;html=1;strokeColor=#788AA3;align=center;verticalAlign=middle;fontFamily=Helvetica;fontSize=11;fontColor=#46495D;labelBackgroundColor=none;endArrow=classic;fillColor=#B2C9AB;" edge="1" parent="kZFQ1U0gjQcbKw0PgBR--2" source="kZFQ1U0gjQcbKw0PgBR--45" target="kZFQ1U0gjQcbKw0PgBR--50">
          <mxGeometry relative="1" as="geometry" />
        </mxCell>
        <mxCell id="kZFQ1U0gjQcbKw0PgBR--45" value="查询通联协议" style="whiteSpace=wrap;html=1;fontSize=11;fillColor=#B2C9AB;strokeColor=#788AA3;fontColor=#46495D;labelBackgroundColor=none;" vertex="1" parent="kZFQ1U0gjQcbKw0PgBR--2">
          <mxGeometry x="80" y="1280" width="120" height="60" as="geometry" />
        </mxCell>
        <mxCell id="kZFQ1U0gjQcbKw0PgBR--58" value="是" style="edgeStyle=orthogonalEdgeStyle;shape=connector;curved=0;rounded=1;orthogonalLoop=1;jettySize=auto;html=1;strokeColor=#788AA3;align=center;verticalAlign=middle;fontFamily=Helvetica;fontSize=11;fontColor=#46495D;labelBackgroundColor=none;endArrow=classic;fillColor=#B2C9AB;" edge="1" parent="kZFQ1U0gjQcbKw0PgBR--2" source="kZFQ1U0gjQcbKw0PgBR--50" target="kZFQ1U0gjQcbKw0PgBR--57">
          <mxGeometry relative="1" as="geometry" />
        </mxCell>
        <mxCell id="kZFQ1U0gjQcbKw0PgBR--50" value="是否存在通联协议" style="rhombus;whiteSpace=wrap;html=1;fontSize=11;fillColor=#B2C9AB;strokeColor=#788AA3;fontColor=#46495D;labelBackgroundColor=none;" vertex="1" parent="kZFQ1U0gjQcbKw0PgBR--2">
          <mxGeometry x="50" y="1380" width="180" height="60" as="geometry" />
        </mxCell>
        <mxCell id="kZFQ1U0gjQcbKw0PgBR--53" style="edgeStyle=orthogonalEdgeStyle;shape=connector;curved=0;rounded=1;orthogonalLoop=1;jettySize=auto;html=1;strokeColor=#788AA3;align=center;verticalAlign=middle;fontFamily=Helvetica;fontSize=11;fontColor=#46495D;labelBackgroundColor=none;endArrow=classic;fillColor=#B2C9AB;entryX=0;entryY=0.5;entryDx=0;entryDy=0;" edge="1" parent="kZFQ1U0gjQcbKw0PgBR--2" source="kZFQ1U0gjQcbKw0PgBR--50" target="kZFQ1U0gjQcbKw0PgBR--54">
          <mxGeometry relative="1" as="geometry">
            <mxPoint x="260" y="1420" as="targetPoint" />
          </mxGeometry>
        </mxCell>
        <mxCell id="kZFQ1U0gjQcbKw0PgBR--56" value="否" style="edgeLabel;html=1;align=center;verticalAlign=middle;resizable=0;points=[];strokeColor=#788AA3;fontFamily=Helvetica;fontSize=11;fontColor=#46495D;labelBackgroundColor=none;fillColor=#B2C9AB;" vertex="1" connectable="0" parent="kZFQ1U0gjQcbKw0PgBR--53">
          <mxGeometry x="-0.0333" y="1" relative="1" as="geometry">
            <mxPoint as="offset" />
          </mxGeometry>
        </mxCell>
        <mxCell id="kZFQ1U0gjQcbKw0PgBR--54" value="&lt;span style=&quot;font-size: 12px;&quot;&gt;返回需要发验证码&lt;/span&gt;&lt;div style=&quot;font-size: 12px;&quot;&gt;发通联验证码&lt;/div&gt;" style="whiteSpace=wrap;html=1;fontSize=11;fillColor=#fff2cc;strokeColor=#d6b656;labelBackgroundColor=none;" vertex="1" parent="kZFQ1U0gjQcbKw0PgBR--2">
          <mxGeometry x="300" y="1380" width="120" height="60" as="geometry" />
        </mxCell>
        <mxCell id="kZFQ1U0gjQcbKw0PgBR--60" style="edgeStyle=orthogonalEdgeStyle;shape=connector;curved=0;rounded=1;orthogonalLoop=1;jettySize=auto;html=1;strokeColor=#788AA3;align=center;verticalAlign=middle;fontFamily=Helvetica;fontSize=11;fontColor=#46495D;labelBackgroundColor=none;endArrow=classic;fillColor=#B2C9AB;" edge="1" parent="kZFQ1U0gjQcbKw0PgBR--2" source="kZFQ1U0gjQcbKw0PgBR--57" target="kZFQ1U0gjQcbKw0PgBR--59">
          <mxGeometry relative="1" as="geometry" />
        </mxCell>
        <mxCell id="kZFQ1U0gjQcbKw0PgBR--57" value="判断是否需要资方签约" style="whiteSpace=wrap;html=1;fontSize=11;fillColor=#B2C9AB;strokeColor=#788AA3;fontColor=#46495D;labelBackgroundColor=none;" vertex="1" parent="kZFQ1U0gjQcbKw0PgBR--2">
          <mxGeometry x="80" y="1490" width="120" height="60" as="geometry" />
        </mxCell>
        <mxCell id="kZFQ1U0gjQcbKw0PgBR--62" value="是" style="edgeStyle=orthogonalEdgeStyle;shape=connector;curved=0;rounded=1;orthogonalLoop=1;jettySize=auto;html=1;strokeColor=#788AA3;align=center;verticalAlign=middle;fontFamily=Helvetica;fontSize=11;fontColor=#46495D;labelBackgroundColor=none;endArrow=classic;fillColor=#B2C9AB;" edge="1" parent="kZFQ1U0gjQcbKw0PgBR--2" source="kZFQ1U0gjQcbKw0PgBR--59" target="kZFQ1U0gjQcbKw0PgBR--63">
          <mxGeometry relative="1" as="geometry">
            <mxPoint x="280" y="1620" as="targetPoint" />
          </mxGeometry>
        </mxCell>
        <mxCell id="kZFQ1U0gjQcbKw0PgBR--68" value="否" style="edgeStyle=orthogonalEdgeStyle;shape=connector;curved=0;rounded=1;orthogonalLoop=1;jettySize=auto;html=1;entryX=0.5;entryY=0;entryDx=0;entryDy=0;strokeColor=#788AA3;align=center;verticalAlign=middle;fontFamily=Helvetica;fontSize=11;fontColor=#46495D;labelBackgroundColor=default;endArrow=classic;fillColor=#B2C9AB;" edge="1" parent="kZFQ1U0gjQcbKw0PgBR--2" source="kZFQ1U0gjQcbKw0PgBR--59" target="kZFQ1U0gjQcbKw0PgBR--67">
          <mxGeometry relative="1" as="geometry" />
        </mxCell>
        <mxCell id="kZFQ1U0gjQcbKw0PgBR--59" value="是否命中不特殊资方" style="rhombus;whiteSpace=wrap;html=1;fontSize=11;fillColor=#f8cecc;strokeColor=#b85450;labelBackgroundColor=none;" vertex="1" parent="kZFQ1U0gjQcbKw0PgBR--2">
          <mxGeometry x="60" y="1580" width="160" height="80" as="geometry" />
        </mxCell>
        <mxCell id="kZFQ1U0gjQcbKw0PgBR--63" value="不需要签约资方&lt;div&gt;该逻辑后续应该由资金系统吃走&lt;/div&gt;" style="whiteSpace=wrap;html=1;fillColor=#f8cecc;strokeColor=#b85450;rounded=0;labelBackgroundColor=none;" vertex="1" parent="kZFQ1U0gjQcbKw0PgBR--2">
          <mxGeometry x="300" y="1590" width="120" height="60" as="geometry" />
        </mxCell>
        <mxCell id="kZFQ1U0gjQcbKw0PgBR--72" value="" style="edgeStyle=orthogonalEdgeStyle;shape=connector;curved=0;rounded=1;orthogonalLoop=1;jettySize=auto;html=1;strokeColor=#788AA3;align=center;verticalAlign=middle;fontFamily=Helvetica;fontSize=11;fontColor=#46495D;labelBackgroundColor=default;endArrow=classic;fillColor=#B2C9AB;entryX=0.5;entryY=0;entryDx=0;entryDy=0;" edge="1" parent="kZFQ1U0gjQcbKw0PgBR--2" source="kZFQ1U0gjQcbKw0PgBR--67" target="kZFQ1U0gjQcbKw0PgBR--73">
          <mxGeometry relative="1" as="geometry">
            <mxPoint x="140" y="1800" as="targetPoint" />
          </mxGeometry>
        </mxCell>
        <mxCell id="kZFQ1U0gjQcbKw0PgBR--67" value="查询子资金配置信息" style="whiteSpace=wrap;html=1;fontSize=11;fillColor=#B2C9AB;strokeColor=#788AA3;fontColor=#46495D;labelBackgroundColor=none;" vertex="1" parent="kZFQ1U0gjQcbKw0PgBR--2">
          <mxGeometry x="80" y="1700" width="120" height="60" as="geometry" />
        </mxCell>
        <mxCell id="kZFQ1U0gjQcbKw0PgBR--75" style="edgeStyle=orthogonalEdgeStyle;shape=connector;curved=0;rounded=1;orthogonalLoop=1;jettySize=auto;html=1;entryX=0;entryY=0.5;entryDx=0;entryDy=0;strokeColor=#788AA3;align=center;verticalAlign=middle;fontFamily=Helvetica;fontSize=11;fontColor=#46495D;labelBackgroundColor=default;endArrow=classic;fillColor=#B2C9AB;" edge="1" parent="kZFQ1U0gjQcbKw0PgBR--2" source="kZFQ1U0gjQcbKw0PgBR--73" target="kZFQ1U0gjQcbKw0PgBR--74">
          <mxGeometry relative="1" as="geometry" />
        </mxCell>
        <mxCell id="kZFQ1U0gjQcbKw0PgBR--76" value="否" style="edgeLabel;html=1;align=center;verticalAlign=middle;resizable=0;points=[];strokeColor=#788AA3;fontFamily=Helvetica;fontSize=11;fontColor=#46495D;labelBackgroundColor=default;fillColor=#B2C9AB;" vertex="1" connectable="0" parent="kZFQ1U0gjQcbKw0PgBR--75">
          <mxGeometry x="-0.0793" relative="1" as="geometry">
            <mxPoint as="offset" />
          </mxGeometry>
        </mxCell>
        <mxCell id="kZFQ1U0gjQcbKw0PgBR--78" value="" style="edgeStyle=orthogonalEdgeStyle;shape=connector;curved=0;rounded=1;orthogonalLoop=1;jettySize=auto;html=1;strokeColor=#788AA3;align=center;verticalAlign=middle;fontFamily=Helvetica;fontSize=11;fontColor=#46495D;labelBackgroundColor=default;endArrow=classic;fillColor=#B2C9AB;" edge="1" parent="kZFQ1U0gjQcbKw0PgBR--2" source="kZFQ1U0gjQcbKw0PgBR--73" target="kZFQ1U0gjQcbKw0PgBR--77">
          <mxGeometry relative="1" as="geometry" />
        </mxCell>
        <mxCell id="kZFQ1U0gjQcbKw0PgBR--79" value="是" style="edgeLabel;html=1;align=center;verticalAlign=middle;resizable=0;points=[];strokeColor=#788AA3;fontFamily=Helvetica;fontSize=11;fontColor=#46495D;labelBackgroundColor=default;fillColor=#B2C9AB;" vertex="1" connectable="0" parent="kZFQ1U0gjQcbKw0PgBR--78">
          <mxGeometry x="-0.2176" y="2" relative="1" as="geometry">
            <mxPoint as="offset" />
          </mxGeometry>
        </mxCell>
        <mxCell id="kZFQ1U0gjQcbKw0PgBR--73" value="资金配置是否需要绑卡" style="rhombus;whiteSpace=wrap;html=1;fontSize=11;fillColor=#f8cecc;strokeColor=#b85450;labelBackgroundColor=none;" vertex="1" parent="kZFQ1U0gjQcbKw0PgBR--2">
          <mxGeometry x="60" y="1790" width="160" height="80" as="geometry" />
        </mxCell>
        <mxCell id="kZFQ1U0gjQcbKw0PgBR--74" value="不需要签约资方&lt;div&gt;该逻辑后续应该由资金系统吃走&lt;br&gt;&lt;/div&gt;" style="whiteSpace=wrap;html=1;fillColor=#f8cecc;strokeColor=#b85450;rounded=0;labelBackgroundColor=none;" vertex="1" parent="kZFQ1U0gjQcbKw0PgBR--2">
          <mxGeometry x="300" y="1800" width="120" height="60" as="geometry" />
        </mxCell>
        <mxCell id="kZFQ1U0gjQcbKw0PgBR--84" value="" style="edgeStyle=orthogonalEdgeStyle;shape=connector;curved=0;rounded=1;orthogonalLoop=1;jettySize=auto;html=1;strokeColor=#788AA3;align=center;verticalAlign=middle;fontFamily=Helvetica;fontSize=11;fontColor=#46495D;labelBackgroundColor=default;endArrow=classic;fillColor=#B2C9AB;" edge="1" parent="kZFQ1U0gjQcbKw0PgBR--2" source="kZFQ1U0gjQcbKw0PgBR--77" target="kZFQ1U0gjQcbKw0PgBR--83">
          <mxGeometry relative="1" as="geometry" />
        </mxCell>
        <mxCell id="kZFQ1U0gjQcbKw0PgBR--77" value="请求资金系统查询是否需要签约资方" style="whiteSpace=wrap;html=1;fontSize=11;fillColor=#d5e8d4;strokeColor=#82b366;labelBackgroundColor=none;" vertex="1" parent="kZFQ1U0gjQcbKw0PgBR--2">
          <mxGeometry x="80" y="1910" width="120" height="60" as="geometry" />
        </mxCell>
        <mxCell id="kZFQ1U0gjQcbKw0PgBR--86" value="是" style="edgeStyle=orthogonalEdgeStyle;shape=connector;curved=0;rounded=1;orthogonalLoop=1;jettySize=auto;html=1;strokeColor=#788AA3;align=center;verticalAlign=middle;fontFamily=Helvetica;fontSize=11;fontColor=#46495D;labelBackgroundColor=default;endArrow=classic;fillColor=#B2C9AB;" edge="1" parent="kZFQ1U0gjQcbKw0PgBR--2" source="kZFQ1U0gjQcbKw0PgBR--83" target="kZFQ1U0gjQcbKw0PgBR--85">
          <mxGeometry relative="1" as="geometry" />
        </mxCell>
        <mxCell id="kZFQ1U0gjQcbKw0PgBR--88" value="" style="edgeStyle=orthogonalEdgeStyle;shape=connector;curved=0;rounded=1;orthogonalLoop=1;jettySize=auto;html=1;strokeColor=#788AA3;align=center;verticalAlign=middle;fontFamily=Helvetica;fontSize=11;fontColor=#46495D;labelBackgroundColor=default;endArrow=classic;fillColor=#B2C9AB;" edge="1" parent="kZFQ1U0gjQcbKw0PgBR--2" source="kZFQ1U0gjQcbKw0PgBR--83" target="kZFQ1U0gjQcbKw0PgBR--87">
          <mxGeometry relative="1" as="geometry" />
        </mxCell>
        <mxCell id="kZFQ1U0gjQcbKw0PgBR--83" value="根据结果判断是否需要签约资方" style="rhombus;whiteSpace=wrap;html=1;fontSize=11;fillColor=#d5e8d4;strokeColor=#82b366;labelBackgroundColor=none;" vertex="1" parent="kZFQ1U0gjQcbKw0PgBR--2">
          <mxGeometry x="55" y="2010" width="170" height="80" as="geometry" />
        </mxCell>
        <mxCell id="kZFQ1U0gjQcbKw0PgBR--85" value="返回需要发验证码，发资方验证码" style="whiteSpace=wrap;html=1;fontSize=11;fillColor=#fff2cc;strokeColor=#d6b656;labelBackgroundColor=none;" vertex="1" parent="kZFQ1U0gjQcbKw0PgBR--2">
          <mxGeometry x="300" y="2020" width="120" height="60" as="geometry" />
        </mxCell>
        <mxCell id="kZFQ1U0gjQcbKw0PgBR--90" value="" style="edgeStyle=orthogonalEdgeStyle;shape=connector;curved=0;rounded=1;orthogonalLoop=1;jettySize=auto;html=1;strokeColor=#788AA3;align=center;verticalAlign=middle;fontFamily=Helvetica;fontSize=11;fontColor=#46495D;labelBackgroundColor=default;endArrow=classic;fillColor=#B2C9AB;" edge="1" parent="kZFQ1U0gjQcbKw0PgBR--2" source="kZFQ1U0gjQcbKw0PgBR--87" target="kZFQ1U0gjQcbKw0PgBR--89">
          <mxGeometry relative="1" as="geometry" />
        </mxCell>
        <mxCell id="kZFQ1U0gjQcbKw0PgBR--91" value="在" style="edgeLabel;html=1;align=center;verticalAlign=middle;resizable=0;points=[];strokeColor=#788AA3;fontFamily=Helvetica;fontSize=11;fontColor=#46495D;labelBackgroundColor=default;fillColor=#B2C9AB;" vertex="1" connectable="0" parent="kZFQ1U0gjQcbKw0PgBR--90">
          <mxGeometry x="-0.2064" relative="1" as="geometry">
            <mxPoint as="offset" />
          </mxGeometry>
        </mxCell>
        <mxCell id="kZFQ1U0gjQcbKw0PgBR--93" value="不在" style="edgeStyle=orthogonalEdgeStyle;shape=connector;curved=0;rounded=1;orthogonalLoop=1;jettySize=auto;html=1;strokeColor=#788AA3;align=center;verticalAlign=middle;fontFamily=Helvetica;fontSize=11;fontColor=#46495D;labelBackgroundColor=default;endArrow=classic;fillColor=#B2C9AB;" edge="1" parent="kZFQ1U0gjQcbKw0PgBR--2" source="kZFQ1U0gjQcbKw0PgBR--87" target="kZFQ1U0gjQcbKw0PgBR--92">
          <mxGeometry relative="1" as="geometry" />
        </mxCell>
        <mxCell id="kZFQ1U0gjQcbKw0PgBR--87" value="渠道是否在必须发还款验证码的配置里" style="rhombus;whiteSpace=wrap;html=1;fontSize=11;fillColor=#d5e8d4;strokeColor=#82b366;labelBackgroundColor=none;" vertex="1" parent="kZFQ1U0gjQcbKw0PgBR--2">
          <mxGeometry x="55" y="2138" width="170" height="80" as="geometry" />
        </mxCell>
        <mxCell id="kZFQ1U0gjQcbKw0PgBR--89" value="返回需要发验证码，信飞自己发平台验证码" style="whiteSpace=wrap;html=1;fontSize=11;fillColor=#fff2cc;strokeColor=#d6b656;labelBackgroundColor=none;" vertex="1" parent="kZFQ1U0gjQcbKw0PgBR--2">
          <mxGeometry x="300" y="2148" width="120" height="60" as="geometry" />
        </mxCell>
        <mxCell id="kZFQ1U0gjQcbKw0PgBR--92" value="返回不需要发还款验证码" style="whiteSpace=wrap;html=1;fontSize=11;fillColor=#fff2cc;strokeColor=#d6b656;labelBackgroundColor=none;" vertex="1" parent="kZFQ1U0gjQcbKw0PgBR--2">
          <mxGeometry x="80" y="2280" width="120" height="60" as="geometry" />
        </mxCell>
        <mxCell id="kZFQ1U0gjQcbKw0PgBR--3" value="支付系统" style="swimlane;startSize=20;html=1;labelBackgroundColor=none;fillColor=#B2C9AB;strokeColor=#788AA3;fontColor=#46495D;" vertex="1" parent="kZFQ1U0gjQcbKw0PgBR--1">
          <mxGeometry x="500" y="20" width="250" height="2368" as="geometry" />
        </mxCell>
        <mxCell id="kZFQ1U0gjQcbKw0PgBR--16" value="查询是否存在宝付签约协议号接口" style="whiteSpace=wrap;html=1;fillColor=#B2C9AB;strokeColor=#788AA3;fontColor=#46495D;rounded=0;fontFamily=Helvetica;fontSize=11;labelBackgroundColor=none;" vertex="1" parent="kZFQ1U0gjQcbKw0PgBR--3">
          <mxGeometry x="65" y="490" width="120" height="60" as="geometry" />
        </mxCell>
        <mxCell id="kZFQ1U0gjQcbKw0PgBR--47" value="查询是否存在通联签约协议号接口" style="whiteSpace=wrap;html=1;fillColor=#B2C9AB;strokeColor=#788AA3;fontColor=#46495D;rounded=0;fontFamily=Helvetica;fontSize=11;labelBackgroundColor=none;" vertex="1" parent="kZFQ1U0gjQcbKw0PgBR--3">
          <mxGeometry x="65" y="1280" width="120" height="60" as="geometry" />
        </mxCell>
        <mxCell id="kZFQ1U0gjQcbKw0PgBR--4" value="资金系统" style="swimlane;startSize=20;html=1;labelBackgroundColor=none;fillColor=#B2C9AB;strokeColor=#788AA3;fontColor=#46495D;" vertex="1" parent="kZFQ1U0gjQcbKw0PgBR--1">
          <mxGeometry x="750" y="20" width="230" height="2368" as="geometry" />
        </mxCell>
        <mxCell id="kZFQ1U0gjQcbKw0PgBR--80" value="批量校验是否需要签约资方接口" style="whiteSpace=wrap;html=1;fillColor=#B2C9AB;strokeColor=#788AA3;fontColor=#46495D;rounded=0;labelBackgroundColor=none;" vertex="1" parent="kZFQ1U0gjQcbKw0PgBR--4">
          <mxGeometry x="55" y="1910" width="120" height="60" as="geometry" />
        </mxCell>
        <mxCell id="kZFQ1U0gjQcbKw0PgBR--6" value="cis bank-core" style="swimlane;startSize=20;html=1;labelBackgroundColor=none;fillColor=#B2C9AB;strokeColor=#788AA3;fontColor=#46495D;" vertex="1" parent="kZFQ1U0gjQcbKw0PgBR--1">
          <mxGeometry x="980" y="20" width="230" height="2368" as="geometry" />
        </mxCell>
        <mxCell id="kZFQ1U0gjQcbKw0PgBR--7" value="查询默认卡接口" style="rounded=0;whiteSpace=wrap;html=1;strokeColor=#788AA3;fontColor=#46495D;fillColor=#B2C9AB;" vertex="1" parent="kZFQ1U0gjQcbKw0PgBR--6">
          <mxGeometry x="55" y="160" width="120" height="60" as="geometry" />
        </mxCell>
        <mxCell id="kZFQ1U0gjQcbKw0PgBR--35" value="finconfig" style="swimlane;startSize=20;html=1;labelBackgroundColor=none;fillColor=#B2C9AB;strokeColor=#788AA3;fontColor=#46495D;" vertex="1" parent="kZFQ1U0gjQcbKw0PgBR--1">
          <mxGeometry x="1210" y="20" width="230" height="2368" as="geometry" />
        </mxCell>
        <mxCell id="kZFQ1U0gjQcbKw0PgBR--36" value="查询子资金配置信息接口" style="rounded=0;whiteSpace=wrap;html=1;strokeColor=#788AA3;fontColor=#46495D;fillColor=#B2C9AB;" vertex="1" parent="kZFQ1U0gjQcbKw0PgBR--35">
          <mxGeometry x="60" y="970" width="120" height="60" as="geometry" />
        </mxCell>
        <mxCell id="kZFQ1U0gjQcbKw0PgBR--10" style="edgeStyle=orthogonalEdgeStyle;rounded=1;orthogonalLoop=1;jettySize=auto;html=1;entryX=0;entryY=0.5;entryDx=0;entryDy=0;strokeColor=#788AA3;fontColor=#46495D;fillColor=#B2C9AB;curved=0;" edge="1" parent="kZFQ1U0gjQcbKw0PgBR--1" source="kZFQ1U0gjQcbKw0PgBR--8" target="kZFQ1U0gjQcbKw0PgBR--7">
          <mxGeometry relative="1" as="geometry" />
        </mxCell>
        <mxCell id="kZFQ1U0gjQcbKw0PgBR--11" value="&lt;div style=&quot;font-family: &amp;quot;JetBrains Mono&amp;quot;, monospace; font-size: 12pt; white-space-collapse: preserve;&quot;&gt;&lt;font color=&quot;#000000&quot;&gt;multi/queryDefaultBankCard&lt;/font&gt;&lt;/div&gt;" style="edgeLabel;html=1;align=center;verticalAlign=middle;resizable=0;points=[];strokeColor=#788AA3;fontFamily=Helvetica;fontSize=11;fontColor=#46495D;labelBackgroundColor=default;fillColor=#B2C9AB;" vertex="1" connectable="0" parent="kZFQ1U0gjQcbKw0PgBR--10">
          <mxGeometry x="-0.1055" y="1" relative="1" as="geometry">
            <mxPoint as="offset" />
          </mxGeometry>
        </mxCell>
        <mxCell id="kZFQ1U0gjQcbKw0PgBR--17" style="edgeStyle=orthogonalEdgeStyle;shape=connector;curved=0;rounded=1;orthogonalLoop=1;jettySize=auto;html=1;strokeColor=#788AA3;align=center;verticalAlign=middle;fontFamily=Helvetica;fontSize=11;fontColor=#46495D;labelBackgroundColor=default;endArrow=classic;fillColor=#B2C9AB;" edge="1" parent="kZFQ1U0gjQcbKw0PgBR--1" source="kZFQ1U0gjQcbKw0PgBR--14" target="kZFQ1U0gjQcbKw0PgBR--16">
          <mxGeometry relative="1" as="geometry" />
        </mxCell>
        <mxCell id="kZFQ1U0gjQcbKw0PgBR--18" value="agreement/queryCardSignInfo" style="edgeLabel;html=1;align=center;verticalAlign=middle;resizable=0;points=[];strokeColor=#788AA3;fontFamily=Helvetica;fontSize=11;fontColor=#46495D;labelBackgroundColor=default;fillColor=#B2C9AB;" vertex="1" connectable="0" parent="kZFQ1U0gjQcbKw0PgBR--17">
          <mxGeometry x="-0.0366" y="2" relative="1" as="geometry">
            <mxPoint as="offset" />
          </mxGeometry>
        </mxCell>
        <mxCell id="kZFQ1U0gjQcbKw0PgBR--37" style="edgeStyle=orthogonalEdgeStyle;shape=connector;curved=0;rounded=1;orthogonalLoop=1;jettySize=auto;html=1;entryX=0;entryY=0.5;entryDx=0;entryDy=0;strokeColor=#788AA3;align=center;verticalAlign=middle;fontFamily=Helvetica;fontSize=11;fontColor=#46495D;labelBackgroundColor=default;endArrow=classic;fillColor=#B2C9AB;" edge="1" parent="kZFQ1U0gjQcbKw0PgBR--1" source="kZFQ1U0gjQcbKw0PgBR--33" target="kZFQ1U0gjQcbKw0PgBR--36">
          <mxGeometry relative="1" as="geometry" />
        </mxCell>
        <mxCell id="kZFQ1U0gjQcbKw0PgBR--38" value="/loan/sub-fund/config" style="edgeLabel;html=1;align=center;verticalAlign=middle;resizable=0;points=[];strokeColor=#788AA3;fontFamily=Helvetica;fontSize=11;fontColor=#46495D;labelBackgroundColor=default;fillColor=#B2C9AB;" vertex="1" connectable="0" parent="kZFQ1U0gjQcbKw0PgBR--37">
          <mxGeometry x="-0.1223" y="2" relative="1" as="geometry">
            <mxPoint as="offset" />
          </mxGeometry>
        </mxCell>
        <mxCell id="kZFQ1U0gjQcbKw0PgBR--48" style="edgeStyle=orthogonalEdgeStyle;shape=connector;curved=0;rounded=1;orthogonalLoop=1;jettySize=auto;html=1;entryX=0;entryY=0.5;entryDx=0;entryDy=0;strokeColor=#788AA3;align=center;verticalAlign=middle;fontFamily=Helvetica;fontSize=11;fontColor=#46495D;labelBackgroundColor=default;endArrow=classic;fillColor=#B2C9AB;" edge="1" parent="kZFQ1U0gjQcbKw0PgBR--1" source="kZFQ1U0gjQcbKw0PgBR--45" target="kZFQ1U0gjQcbKw0PgBR--47">
          <mxGeometry relative="1" as="geometry" />
        </mxCell>
        <mxCell id="kZFQ1U0gjQcbKw0PgBR--49" value="" style="edgeLabel;html=1;align=center;verticalAlign=middle;resizable=0;points=[];strokeColor=#788AA3;fontFamily=Helvetica;fontSize=11;fontColor=#46495D;labelBackgroundColor=none;fillColor=#B2C9AB;" vertex="1" connectable="0" parent="kZFQ1U0gjQcbKw0PgBR--48">
          <mxGeometry x="-0.0251" y="-2" relative="1" as="geometry">
            <mxPoint y="-2" as="offset" />
          </mxGeometry>
        </mxCell>
        <mxCell id="kZFQ1U0gjQcbKw0PgBR--64" value="&lt;span style=&quot;background-color: rgb(251, 251, 251);&quot;&gt;agreement/queryCardSignInfo&lt;/span&gt;" style="edgeLabel;html=1;align=center;verticalAlign=middle;resizable=0;points=[];strokeColor=#788AA3;fontFamily=Helvetica;fontSize=11;fontColor=#46495D;labelBackgroundColor=default;fillColor=#B2C9AB;" vertex="1" connectable="0" parent="kZFQ1U0gjQcbKw0PgBR--48">
          <mxGeometry x="-0.2767" y="2" relative="1" as="geometry">
            <mxPoint x="8" as="offset" />
          </mxGeometry>
        </mxCell>
        <mxCell id="kZFQ1U0gjQcbKw0PgBR--70" style="edgeStyle=orthogonalEdgeStyle;shape=connector;curved=0;rounded=1;orthogonalLoop=1;jettySize=auto;html=1;entryX=0.5;entryY=1;entryDx=0;entryDy=0;strokeColor=#788AA3;align=center;verticalAlign=middle;fontFamily=Helvetica;fontSize=11;fontColor=#46495D;labelBackgroundColor=default;endArrow=classic;fillColor=#B2C9AB;" edge="1" parent="kZFQ1U0gjQcbKw0PgBR--1" source="kZFQ1U0gjQcbKw0PgBR--67" target="kZFQ1U0gjQcbKw0PgBR--36">
          <mxGeometry relative="1" as="geometry" />
        </mxCell>
        <mxCell id="kZFQ1U0gjQcbKw0PgBR--81" style="edgeStyle=orthogonalEdgeStyle;shape=connector;curved=0;rounded=1;orthogonalLoop=1;jettySize=auto;html=1;entryX=0;entryY=0.5;entryDx=0;entryDy=0;strokeColor=#788AA3;align=center;verticalAlign=middle;fontFamily=Helvetica;fontSize=11;fontColor=#46495D;labelBackgroundColor=default;endArrow=classic;fillColor=#B2C9AB;" edge="1" parent="kZFQ1U0gjQcbKw0PgBR--1" source="kZFQ1U0gjQcbKw0PgBR--77" target="kZFQ1U0gjQcbKw0PgBR--80">
          <mxGeometry relative="1" as="geometry" />
        </mxCell>
        <mxCell id="kZFQ1U0gjQcbKw0PgBR--82" value="/bankcard/is_sign_batch" style="edgeLabel;html=1;align=center;verticalAlign=middle;resizable=0;points=[];strokeColor=#788AA3;fontFamily=Helvetica;fontSize=11;fontColor=#46495D;labelBackgroundColor=default;fillColor=#B2C9AB;" vertex="1" connectable="0" parent="kZFQ1U0gjQcbKw0PgBR--81">
          <mxGeometry x="-0.2217" y="2" relative="1" as="geometry">
            <mxPoint as="offset" />
          </mxGeometry>
        </mxCell>
      </root>
    </mxGraphModel>
  </diagram>
</mxfile>
